<?xml version="1.0" encoding="UTF-8"?>
<svg width="1200pt" height="1200pt" version="1.1" viewBox="0 0 1200 1200" xmlns="http://www.w3.org/2000/svg">
 <path d="m1092.3 257.64c-17.328-24.852-36.504-48.312-57.301-70.246-109.4-115.27-263.89-187.39-435-187.39-100.08 0-194.45 24.758-277.5 68.27-31.668 16.598-61.645 35.953-89.699 57.707-141.5 109.87-232.8 281.43-232.8 474.02s91.297 364.16 232.81 474.02c28.031 21.77 58.02 41.09 89.688 57.719 83.051 43.516 177.42 68.258 277.5 68.258 171.11 0 325.6-72.133 435-187.4 20.797-21.91 39.973-45.383 57.301-70.234 67.801-97.18 107.7-215.19 107.7-342.36 0-127.19-39.898-245.2-107.7-342.36zm16.762 312.36h-148.1c5.0156-86.051 31.453-166.46 74.062-235.91 42.59 69.441 69 149.86 74.039 235.91zm-131.36-312.36c-62.438 89.496-101.2 196.63-106.93 312.36h-75.766v-441.18c70.129 29.137 132.41 73.414 182.7 128.82zm-655.2-85.199c131.93 85.922 221.83 231.1 231.55 397.56h-463.1c9.7188-166.46 99.621-311.64 231.55-397.56zm-228.85 487.56h457.71c-18.121 153.82-104.9 286.85-228.85 367.56-123.96-80.711-210.74-213.74-228.86-367.56zm611.35 439.08c-33.887 7.1289-69.023 10.922-105 10.922-66.312 0-129.65-12.863-187.81-35.977 126.62-98.316 213.04-246.02 229.81-414.02h63zm0-529.08h-60.758c-8.9492-180.35-97.941-339.9-232.04-444.01 58.152-23.137 121.49-35.988 187.8-35.988 35.977 0 71.113 3.793 105 10.922zm90 501.17v-411.17h78c10.379 104.26 47.699 200.65 104.7 282.36-50.293 55.395-112.57 99.684-182.7 128.81zm240-205.25c-37.621-61.309-62.555-131.18-71.352-205.92h142.71c-8.8086 74.746-33.742 144.61-71.363 205.92z"/>
</svg>
